# xmcd CD database file
#
# Track frame offsets:
#	150
#	18727
#	38787
#	58187
#	75575
#	97355
#	116195
#	135977
#	155342
#
# Disc length: 2269 seconds
#
# Revision: 2
# Processed by: cddbd v1.5.2PL0 Copyright (c) Steve Scherf et al.
# Submitted via: jetAudio 7
#
DISCID=7708db09
DTITLE=임창정 - AGAIN
DYEAR=1997
DGENRE=R&B
TTITLE0=SUMMER DREAM
TTITLE1=그때또다시(AGAIN)
TTITLE2=결혼해줘
TTITLE3=지킬께
TTITLE4=내가 웃는건
TTITLE5=너를 잊기로 했어
TTITLE6=슬픈연가-환규의테마(영화BEAT중에서)
TTITLE7=날 믿어줘(경민에게)
TTITLE8=SUMMER DREAM REMIX (CLUB VERSION)
EXTD=YEAR: 1997
EXTT0=
EXTT1=
EXTT2=
EXTT3=
EXTT4=
EXTT5=
EXTT6=
EXTT7=
EXTT8=
PLAYORDER=
